<?xml version="1.0" encoding="iso-8859-1"?>
<!-- Generator: Adobe Illustrator 18.0.0, SVG Export Plug-In . SVG Version: 6.00 Build 0)  -->
<!DOCTYPE svg PUBLIC "-//W3C//DTD SVG 1.1//EN" "http://www.w3.org/Graphics/SVG/1.1/DTD/svg11.dtd">
<svg version="1.1" id="Capa_1" xmlns="http://www.w3.org/2000/svg" xmlns:xlink="http://www.w3.org/1999/xlink" x="0px" y="0px"
	 viewBox="0 0 466.481 466.481" style="enable-background:new 0 0 466.481 466.481;" xml:space="preserve">
<g id="XMLID_101_">
	<path id="XMLID_102_" d="M104.323,104.574c0,7.204,5.843,13.047,13.047,13.047h231.724c7.204,0,13.047-5.843,13.047-13.047V46.687
		c0-21.812-17.679-39.492-39.49-39.492H143.813c-21.81,0-39.49,17.68-39.49,39.492V104.574z"/>
	<path id="XMLID_103_" d="M433.33,196.435l-59.893-40.422c-7.212-4.872-15.729-7.475-24.438-7.475H117.481
		c-8.709,0-17.225,2.604-24.438,7.475L33.15,196.435c-32.741,22.09-42.811,65.738-23.07,99.942l72.327,125.294
		c13.43,23.277,38.266,37.614,65.139,37.614h171.386c26.875,0,51.71-14.336,65.139-37.614L456.4,296.378
		C476.142,262.173,466.071,218.525,433.33,196.435z M302.176,315.251c-11.128,37.612-30.694,108.053-175.094,81.649
		c26.247-44.434,66.403-87.465,132.934-119.315c1.766-0.846,0.717-3.503-1.152-2.918c-63.177,19.767-126.665,67.236-142.131,100.04
		c2.723-36.029,15.427-109.678,73.602-132.293c57.11-22.193,121.897-18.65,152.483-15.165c6.605,0.753,9.314,8.872,4.477,13.432
		C333.759,253.44,313.247,277.732,302.176,315.251z"/>
</g>
<g>
</g>
<g>
</g>
<g>
</g>
<g>
</g>
<g>
</g>
<g>
</g>
<g>
</g>
<g>
</g>
<g>
</g>
<g>
</g>
<g>
</g>
<g>
</g>
<g>
</g>
<g>
</g>
<g>
</g>
</svg>
