<?xml version="1.0" encoding="utf-8"?>
<!-- Svg Vector Icons : http://www.onlinewebfonts.com/icon -->
<!DOCTYPE svg PUBLIC "-//W3C//DTD SVG 1.1//EN" "http://www.w3.org/Graphics/SVG/1.1/DTD/svg11.dtd">
<svg version="1.1" xmlns="http://www.w3.org/2000/svg" xmlns:xlink="http://www.w3.org/1999/xlink" x="0px" y="0px" viewBox="0 0 1000 1000" enable-background="new 0 0 1000 1000" xml:space="preserve">
<metadata> Svg Vector Icons : http://www.onlinewebfonts.com/icon </metadata>
<g><path d="M284.7,839.5c-33,5-62.9,9.4-92.7,14.1c-26.1,4.1-44.4-12.2-41.8-38.6c2.5-26.2,5.9-52.4,9.3-78.5c2.4-18.2,2.2-19.2-15.4-24.6c-26.5-8-53.1-15.8-79.8-23.4c-24.5-7-33.9-29.5-20.3-51.1c15.9-25.3,32-50.5,48.6-75.4c4.7-7,4-11-2.5-16.6c-23.1-20-45.8-40.4-68.3-61.1C4.5,468.7,6.5,445,26.1,432.5c26.1-16.6,52.4-32.9,78.8-48.9c7.1-4.3,8.4-8.7,5.1-16.3c-11-25.5-21.3-51.3-32.1-76.9c-11.2-26.8-0.5-47.2,28.4-51.4c28.1-4.1,56.4-6.9,84.6-9.7c9.7-1,16.3-2.3,16.7-14.8c0.9-25.6,3.5-51.2,5.4-76.7c0.7-9.1,0.8-18.4,5.8-26.5c7.8-12.6,22.7-18.6,38.8-13.6c29.5,9.1,58.8,19,87.8,29.3c9.2,3.3,13.7,1.3,18.4-7c14-25.2,29-49.8,43.3-74.9c12.5-21.9,37.9-25.7,56-8.3c22.5,21.7,45.1,43.3,67.3,65.3c5.3,5.2,9,3,13.7-0.1c24.5-16.5,48.9-33,73.6-49.2c26.1-17.2,48.1-9.3,58.4,20.2c9.3,26.6,19.2,52.9,28.4,79.4c2.1,6.1,5.2,8.2,11.6,7.2c30.9-4.7,61.8-8.9,92.7-13.7c24.6-3.8,43.4,13,40.9,37.7c-2.7,26.6-5.9,53.1-9.3,79.6c-2.4,18.6-2,19.5,16.5,24.8c26,7.5,51.9,15,77.8,22.8c27.3,8.3,35.1,30.1,19.7,54.2c-15.4,24-30.5,48.1-46.3,71.8c-4.8,7.2-5,11.4,2.1,17.4c22.9,19.7,45.3,40,67.5,60.5c18.5,17.1,15.8,40.5-5.7,53.8c-25.4,15.8-50.6,31.7-76.2,47.1c-8,4.8-9,9.7-5.4,18c11.1,25.5,21.5,51.2,32,76.9c10.8,26.2-0.5,46.2-28.9,50c-28.5,3.9-57.1,7.1-85.7,9.9c-9.9,1-15.1,4-15.6,14.9c-1.2,25.6-3.5,51.2-5.3,76.7c-0.6,8.5-1.2,16.9-5,24.6c-6.8,13.6-22.8,20.5-39.8,15.3c-29.2-9-58.2-18.7-86.9-29.1c-10.1-3.7-14.8-1.5-19.8,7.7c-13.7,25-28.4,49.4-42.9,73.9c-13.4,22.8-37.7,25.9-56.6,7.5c-22.2-21.5-44.6-42.8-66.6-64.5c-5.3-5.2-9.1-2.9-13.7,0.3c-24.2,16.3-48.4,32.5-72.7,48.6c-27.1,18-48.9,10.1-59.5-20.8c-8.8-25.6-18.6-50.8-27.3-76.5C293.4,841.4,289.7,837.8,284.7,839.5L284.7,839.5z M754.7,621.5c0.8-27.8-6-50.8-18.1-72.4c-32.8-58.8-108-68.6-154.6-20.1c-42.2,43.9-45,121-6.2,171.1c38,49,106.9,51.7,147.5,4.7C744.4,680.5,756,651.6,754.7,621.5L754.7,621.5z M451.2,395.7c-0.4-43.3-5.2-60.9-20.3-86.2c-33.2-55.7-106.3-64.4-151.4-17.9c-44,45.3-46.2,127.6-4.7,175.1c37.2,42.5,95.2,47.5,135.9,11C438.9,452.4,450.6,419.7,451.2,395.7L451.2,395.7z M338.3,709.2c-0.2,4.8,2.4,8,6.2,10.3c6,3.7,12.1,7.2,17.9,11c11.6,7.5,16.8,6.7,24.3-4.9c14.7-22.8,28.9-45.8,43.5-68.6c56.2-87.6,112.5-175.2,168.6-262.8c19.5-30.5,38.9-61.1,58.2-91.7c7.6-12,6.2-17.4-6-24.9c-5.4-3.3-10.9-6.4-16.3-9.7c-8.5-5.4-15.3-3.5-20.5,4.9c-2.4,3.9-4.9,7.7-7.4,11.6c-43.8,68.4-87.6,136.8-131.3,205.3c-44.5,69.6-88.9,139.3-133.4,209C340.1,701.8,338.1,705.1,338.3,709.2L338.3,709.2z"/><path d="M702.9,620.1c0.7,18.9-6,35.2-17.8,49.4c-17.3,20.8-43.2,22.4-63.1,4.4c-29-26.4-28.7-85.4,0.6-111.6c20.8-18.6,48.8-15.4,65.1,7.3C698.5,584.5,703,599.4,702.9,620.1L702.9,620.1z"/><path d="M297.1,380.6c-0.9-18.9,5.6-35.2,17.3-49.6c17.1-21.1,42.6-23.2,63-5.5c30,26.1,29.4,87.3-1,112.9c-21,17.7-48.3,14.2-64.2-8.4C301.4,415,297.1,400.5,297.1,380.6L297.1,380.6z"/></g>
</svg>